<?xml version="1.0" standalone="no"?>
<!DOCTYPE svg PUBLIC "-//W3C//DTD SVG 20010904//EN"
 "http://www.w3.org/TR/2001/REC-SVG-20010904/DTD/svg10.dtd">
<svg version="1.0" xmlns="http://www.w3.org/2000/svg"
 width="512.000000pt" height="512.000000pt" viewBox="0 0 512.000000 512.000000"
 preserveAspectRatio="xMidYMid meet">

<g transform="translate(0.000000,512.000000) scale(0.100000,-0.100000)"
fill="#000000" stroke="none">
<path d="M2400 4259 c-859 -51 -1655 -536 -2184 -1332 -52 -78 -122 -193 -155
-254 l-61 -113 61 -112 c433 -797 1156 -1364 1959 -1536 336 -73 744 -73 1080
0 715 153 1357 610 1804 1281 52 78 122 193 155 255 l61 112 -61 113 c-311
571 -788 1042 -1327 1311 -423 211 -867 303 -1332 275z m365 -655 c323 -62
599 -272 747 -569 77 -155 110 -296 110 -475 0 -282 -97 -529 -287 -729 -209
-220 -471 -333 -775 -333 -515 0 -938 347 -1045 857 -22 106 -22 304 0 410 44
208 131 377 270 524 88 93 163 151 268 206 230 122 458 157 712 109z"/>
<path d="M2421 3185 c-178 -39 -348 -172 -429 -336 -95 -193 -95 -385 0 -578
82 -166 251 -297 434 -336 451 -96 855 308 759 759 -72 342 -420 565 -764 491z"/>
</g>
</svg>
